<svg width="73" height="72" viewBox="0 0 73 72" fill="none" xmlns="http://www.w3.org/2000/svg">
<path d="M36.6504 72C46.1982 72 55.3549 68.2072 62.1062 61.4558C68.8575 54.7045 72.6504 45.5478 72.6504 36C72.6504 26.4522 68.8575 17.2955 62.1062 10.5442C55.3549 3.79285 46.1982 0 36.6504 0C27.1026 0 17.9459 3.79285 11.1945 10.5442C4.44324 17.2955 0.650391 26.4522 0.650391 36C0.650391 45.5478 4.44324 54.7045 11.1945 61.4558C17.9459 68.2072 27.1026 72 36.6504 72Z" fill="#FF9235"/>
<path d="M33.4005 35.9024C31.1698 44.2388 29.9864 48.8363 30.0493 48.8782C30.2063 48.9725 34.2174 50.0407 34.2488 49.9988C34.2593 49.9779 35.8198 44.1655 37.7258 37.0859C39.967 28.6972 41.1399 24.1834 41.0666 24.1415C40.9619 24.0787 37.0241 23 36.9089 23C36.888 23 35.3066 28.8124 33.4005 35.9024Z" fill="white"/>
<path d="M17.2837 30.2265L11 36.5102L17.3046 42.8148L23.6197 49.1299L25.1906 47.559L26.7615 45.988L22.0278 41.2544L17.2837 36.5102L22.0278 31.766L26.7615 27.0323L25.2116 25.4824C24.3633 24.6341 23.6511 23.9429 23.6197 23.9429C23.5883 23.9429 20.7397 26.7705 17.2837 30.2265Z" fill="white"/>
<path d="M45.895 25.4824L44.3555 27.0323L49.0892 31.766L53.8333 36.5102L49.0892 41.2544L44.3555 45.988L45.9264 47.559L47.4973 49.1299L53.8124 42.8148L60.117 36.5102L53.8333 30.2265C50.3773 26.7705 47.5287 23.9429 47.4973 23.9429C47.4659 23.9429 46.7537 24.6341 45.895 25.4824Z" fill="white"/>
</svg>
