<?xml version="1.0" encoding="UTF-8"?>
<svg width="36px" height="36px" viewBox="0 0 36 36" version="1.1" xmlns="http://www.w3.org/2000/svg" xmlns:xlink="http://www.w3.org/1999/xlink">
    <title>Email-white</title>
    <g id="Email-white" stroke="none" stroke-width="1" fill="none" fill-rule="evenodd">
        <g transform="translate(7, 9.5)" fill="#FFFFFF" fill-rule="nonzero" id="Shape">
            <path d="M1.79560997,0.0576623503 C0.951854975,0.23324705 0.218847975,1.03754705 0.055371075,1.97777705 C-0.018457025,2.38558705 -0.018457025,14.5407171 0.055371075,14.9541171 C0.229394975,15.9340171 1.01513997,16.7326171 1.96435998,16.8742171 C2.14892998,16.9082171 5.08095997,16.9309171 8.57724997,16.9309171 L14.8579,16.9309171 L14.9792,17.2821171 C16.113,20.6805171 19.5091,22.5043171 22.6784,21.4282171 C23.1952,21.2582171 23.8755,20.9014171 24.0126,20.7371171 C24.3395,20.3520171 24.1075,19.7629171 23.6276,19.7629171 C23.5274,19.7629171 23.2901,19.8422171 23.1003,19.9385171 C22.1616,20.4199171 21.2862,20.5955171 20.3054,20.4936171 C18.1749,20.2670171 16.4347,18.6414171 15.8968,16.3645171 C15.8177,16.0303171 15.7966,15.7528171 15.8019,15.0334171 C15.8071,14.2178171 15.8229,14.0762171 15.9495,13.6231171 C16.4663,11.7936171 17.7372,10.4285171 19.4353,9.87347705 C19.8624,9.73754705 19.9942,9.72054705 20.7536,9.71488705 C21.4233,9.70922705 21.6817,9.73187705 21.9929,9.81683705 C23.7595,10.2983171 25.1042,11.6576171 25.6421,13.4985171 C25.8372,14.1782171 25.9427,15.4299171 25.8478,15.9340171 C25.7581,16.3871171 25.4101,16.7723171 25.0198,16.8629171 C24.4608,16.9932171 23.9704,16.7270171 23.7278,16.1662171 C23.6435,15.9680171 23.6276,15.7811171 23.6276,14.5633171 C23.6276,13.0510171 23.6065,12.9321171 23.3112,12.7678171 C23.1214,12.6602171 23.0106,12.6602171 22.8155,12.7678171 C22.6731,12.8471171 22.6573,12.8414171 22.4728,12.6885171 C21.6712,12.0145171 20.4688,11.9069171 19.5091,12.4336171 C19.1979,12.5979171 18.6759,13.1133171 18.4649,13.4588171 C17.4683,15.0731171 18.196,17.3104171 19.9257,17.9561171 C20.8274,18.2959171 21.9243,18.0580171 22.6468,17.3670171 L22.9104,17.1178171 L23.1794,17.4067171 C24.4397,18.7604171 26.6177,18.0297171 26.9499,16.1379171 C26.9763,15.9737171 27.0026,15.5715171 27.0026,15.2373171 C27.0026,13.0397171 26.1061,11.0856171 24.5083,9.78851705 C23.7489,9.17113705 22.5571,8.64437705 21.6395,8.51976705 L21.3601,8.48011705 L21.3601,5.24027705 C21.3601,2.20433705 21.3548,1.97777705 21.2599,1.68324705 C20.9962,0.86195905 20.4003,0.26723205 19.6462,0.0746548503 C19.3772,0.0123494503 17.9692,-0.0046431497 10.6813,0.0010216803 C5.92470997,0.0066846003 1.92743997,0.0293419503 1.79560997,0.0576623503 Z M19.1347234,1.23578705 C19.1083,1.32074705 11.1823,8.28754705 11.0347,8.36117705 C10.8448,8.45179705 10.5021,8.45179705 10.3386,8.36117705 C10.2015,8.28187705 2.62880997,1.63793705 2.34931997,1.34906705 L2.19110997,1.18480705 L10.6761,1.18480705 C15.6226,1.18480705 19.1452,1.20746705 19.1347234,1.23578705 Z M5.45536997,5.65941705 C7.73876998,7.67015705 9.70575997,9.36937705 9.83231997,9.43734705 C10.3228,9.70355705 10.9872,9.71488705 11.5093,9.46566705 C11.6358,9.40902705 13.6187,7.69847705 15.9179,5.67074705 C18.2224,3.63734705 20.1208,1.97777705 20.1472,1.97777705 C20.2368,1.97777705 20.2526,2.36293705 20.2526,5.35355705 L20.2526,8.47445705 L19.8466,8.54808705 C17.6897,8.91625705 15.8177,10.5532171 15.0319,12.7451171 C14.763,13.5041171 14.5784,14.7729171 14.647,15.3959171 L14.6786,15.6848171 L8.26610997,15.6735171 L1.85888998,15.6565171 L1.62685998,15.4866171 C1.50556998,15.3903171 1.34208998,15.1977171 1.26825998,15.0617171 L1.13642998,14.8069171 L1.13642998,8.49144705 C1.13642998,5.01937705 1.15224998,2.13070705 1.17860998,2.07406705 C1.19970998,2.01742705 1.23661998,1.97777705 1.26298998,1.98910705 C1.28935998,2.00043705 3.17724998,3.64867705 5.45536997,5.65941705 Z M21.5288,13.4645171 C21.8188,13.6174171 22.1722,13.9799171 22.3093,14.2688171 C22.536,14.7446171 22.536,15.4299171 22.3145,15.9057171 C21.8927,16.7893171 20.8591,17.1518171 20.0417,16.7043171 C19.7728,16.5571171 19.4353,16.1776171 19.2929,15.8660171 C19.1188,15.4809171 19.1188,14.6936171 19.2981,14.3254171 C19.5196,13.8666171 19.9046,13.5155171 20.3581,13.3569171 C20.6165,13.2662171 21.2651,13.3285171 21.5288,13.4645171 Z"></path>
        </g>
    </g>
</svg>