<svg width="73" height="72" viewBox="0 0 73 72" fill="none" xmlns="http://www.w3.org/2000/svg">
<path d="M36.6504 72C46.1982 72 55.3549 68.2072 62.1062 61.4558C68.8575 54.7045 72.6504 45.5478 72.6504 36C72.6504 26.4522 68.8575 17.2955 62.1062 10.5442C55.3549 3.79285 46.1982 0 36.6504 0C27.1026 0 17.9459 3.79285 11.1945 10.5442C4.44324 17.2955 0.650391 26.4522 0.650391 36C0.650391 45.5478 4.44324 54.7045 11.1945 61.4558C17.9459 68.2072 27.1026 72 36.6504 72Z" fill="#FF9235"/>
<path d="M20.241 15.0288C18.306 15.2939 16.7422 16.6457 16.159 18.5453C16.0088 19.0489 16 19.5879 16 27.9108C16 36.2338 16.0088 36.7727 16.159 37.2763C16.5655 38.5928 17.4402 39.6707 18.5799 40.2627C19.4016 40.6956 20.1703 40.8547 21.4073 40.8547H22.3968L22.4233 43.4876C22.4498 45.7318 22.4675 46.1471 22.6 46.3768C23.0153 47.1366 23.9165 47.49 24.641 47.1808C24.8001 47.119 26.1784 46.1294 27.7069 44.9808L30.49 42.9045L30.5342 45.5639C30.5784 48.0113 30.5961 48.2764 30.7728 48.7358C31.1704 49.8049 31.886 50.6266 32.8491 51.1126C33.8387 51.6162 34.0507 51.6338 38.8748 51.6338H43.2837L46.7207 54.2049C49.8396 56.5463 50.5376 57.0058 50.944 57.0234C51.2355 57.0234 51.748 56.8291 52.0131 56.6082C52.5697 56.1399 52.6227 55.8837 52.6227 53.6395V51.6338H53.3119C54.6902 51.625 55.7239 51.2628 56.5633 50.4676C57.1288 49.9375 57.4998 49.3808 57.7649 48.6652L57.9681 48.1439L57.9946 40.9872C58.0123 36.2956 57.9858 33.6185 57.9239 33.2121C57.6677 31.4715 56.2806 29.996 54.5842 29.6426C54.3014 29.5807 52.985 29.5454 51.209 29.5454H48.2934V24.4385C48.2934 19.6232 48.2845 19.2875 48.1167 18.6425C47.8958 17.7501 47.507 17.0875 46.8444 16.416C46.2612 15.8417 45.7311 15.5148 44.8917 15.2055L44.3616 15.0111L32.4338 15.0023C25.878 14.9935 20.3912 15.0111 20.241 15.0288ZM44.0259 18.3332C44.3263 18.4481 44.7327 18.8192 44.9006 19.1373C45.0066 19.3405 45.0243 20.7365 45.0243 27.9108C45.0243 34.0514 44.9978 36.4988 44.9271 36.6402C44.7945 36.8876 44.4146 37.3117 44.1849 37.4354C44.0612 37.5149 42.3736 37.5502 38.1327 37.5856C33.1672 37.6209 32.2129 37.6474 32.0009 37.7623C31.8595 37.833 30.384 38.9197 28.7318 40.1655L25.7189 42.445L25.6748 40.5631C25.6482 39.335 25.5952 38.6281 25.5246 38.5045C25.339 38.1864 24.8089 37.7799 24.4643 37.6828C24.2788 37.6297 23.298 37.5856 22.2731 37.5856C20.1791 37.5856 20.0289 37.5502 19.543 36.9406L19.2691 36.596L19.2426 28.0345C19.2249 19.7557 19.2249 19.4642 19.3928 19.1373C19.5783 18.775 19.7639 18.5895 20.1526 18.3863C20.3912 18.2537 21.6105 18.2449 32.0981 18.2361C40.1383 18.2361 43.8492 18.2626 44.0259 18.3332ZM54.0364 32.841C54.2042 32.9028 54.4251 33.0795 54.54 33.2474L54.7432 33.5478V40.5808C54.7432 47.384 54.7344 47.6226 54.5753 47.87C54.2749 48.3206 54.1247 48.3559 52.446 48.3648C50.7673 48.3648 50.3873 48.4266 49.9721 48.78C49.4861 49.1864 49.4066 49.4338 49.3536 50.8298L49.3094 52.1021L46.9681 50.3439C45.6781 49.3808 44.4853 48.5503 44.3174 48.4884C44.0789 48.4001 42.8596 48.3736 39.2724 48.3648H34.5367L34.2363 48.1615C33.7415 47.8346 33.7238 47.6756 33.7238 44.1591L33.715 40.9695L35.1905 40.9165C35.9945 40.8812 38.274 40.8547 40.2443 40.8547C43.0628 40.8547 43.964 40.8193 44.45 40.7221C46.0933 40.3776 47.3922 39.2378 48.0106 37.6032C48.2315 37.0378 48.2403 36.9052 48.2757 34.8643L48.311 32.7261L51.0147 32.7349C52.8789 32.7349 53.8243 32.7703 54.0364 32.841Z" fill="white"/>
<path d="M24.084 24.686V26.2764H32.1684H40.2528V24.686V23.0956H32.1684H24.084V24.686Z" fill="white"/>
<path d="M24.084 31.1362V32.7266H28.1041H32.1242V31.1362V29.5458H28.1041H24.084V31.1362Z" fill="white"/>
</svg>
