<?xml version="1.0" encoding="UTF-8"?>
<svg width="36px" height="36px" viewBox="0 0 36 36" version="1.1" xmlns="http://www.w3.org/2000/svg" xmlns:xlink="http://www.w3.org/1999/xlink">
    <title>TG-white</title>
    <g id="TG-white" stroke="none" stroke-width="1" fill="none" fill-rule="evenodd">
        <g transform="translate(3, 6)" fill="#FFFFFF" fill-rule="nonzero" id="Shape">
            <path d="M20.5086,1.79620427 C18.0694,2.77808427 12.5812,4.95891427 8.31253,6.66429427 C-0.204047001,10.0440743 -0.0800190015,9.98207427 0.0233375985,10.7571743 C0.0543444985,10.9845743 0.168036999,11.2739743 0.281728999,11.3773743 C0.395420999,11.4910743 1.96644,12.1525743 3.77518,12.8449743 L7.06192,14.1059743 L7.96112,17.5063743 C8.45723,19.3771743 8.912,21.0101743 8.97402,21.1445743 C9.11872,21.4545743 9.70785,21.7439743 10.0489,21.6509743 C10.1936,21.6199743 11.1548,20.9894743 12.1884,20.2556743 L14.0592,18.9120743 L17.4803,21.2375743 C20.3846,23.2013743 20.953,23.5527743 21.2734,23.5527743 C21.6662,23.5527743 22.0486,23.3563743 22.2037,23.0566743 C22.3794,22.7258743 26.4723,1.00035427 26.3999,0.741964267 C26.3689,0.597264267 26.2242,0.369879267 26.0899,0.235515267 C25.6248,-0.229589733 25.325,-0.146903733 20.5086,1.79620427 Z M19.9401,4.78320427 C19.5164,5.20696427 17.0462,7.58416427 14.4622,10.0646743 C11.8783,12.5452743 9.70785,14.6950743 9.64583,14.8397743 L9.53214,15.1085743 L9.41845,14.7570743 C9.35643,14.5607743 9.23241,14.1059743 9.13939,13.7338743 C9.04637,13.3721743 8.90167,12.9483743 8.81898,12.7933743 C8.66395,12.4935743 8.35388,12.3488743 5.58392,11.2946743 C4.51935,10.8812743 4.04391,10.6641743 4.13693,10.6021743 C4.32297,10.4884743 20.4776,4.03903427 20.612,4.02870427 C20.6636,4.01836427 20.3639,4.35944427 19.9401,4.78320427 Z M23.599,4.86588427 C23.5163,5.27931427 22.8238,8.94847427 22.059,13.0103743 C21.2838,17.0722743 20.6223,20.4830743 20.581,20.5760743 C20.5189,20.7310743 19.8368,20.3073743 16.426,17.9921743 C14.1832,16.4728743 12.3434,15.1705743 12.3434,15.1188743 C12.3434,15.0051743 23.5473,4.14239427 23.6713,4.13205427 C23.7127,4.12172427 23.6713,4.46279427 23.599,4.86588427 Z M11.1342,16.9275743 C11.651,17.2789743 12.085,17.5993743 12.085,17.6510743 C12.085,17.7544743 10.6794,18.7983743 10.545,18.7983743 C10.5037,18.7983743 10.3073,18.2091743 10.1213,17.4753743 C9.93523,16.7518743 9.75953,16.0903743 9.72852,16.0077743 C9.69751,15.9043743 9.75953,15.9250743 9.9249,16.0697743 C10.0593,16.1937743 10.607,16.5761743 11.1342,16.9275743 Z"></path>
        </g>
    </g>
</svg>