<?xml version="1.0" encoding="UTF-8"?>
<svg width="36px" height="36px" viewBox="0 0 36 36" version="1.1" xmlns="http://www.w3.org/2000/svg" xmlns:xlink="http://www.w3.org/1999/xlink">
    <title>TG</title>
    <g id="TG" stroke="none" stroke-width="1" fill="none" fill-rule="evenodd">
        <g transform="translate(3, 6)" fill="#141C3A" fill-rule="nonzero" id="Shape">
            <path d="M20.5086,1.79620349 C18.0694,2.77808349 12.5812,4.95891349 8.31253,6.66429349 C-0.204047001,10.0440735 -0.0800190015,9.98207349 0.0233375985,10.7571735 C0.0543444985,10.9845735 0.168036999,11.2739735 0.281728999,11.3773735 C0.395420999,11.4910735 1.96644,12.1525735 3.77518,12.8449735 L7.06192,14.1059735 L7.96112,17.5063735 C8.45723,19.3771735 8.912,21.0101735 8.97402,21.1445735 C9.11872,21.4545735 9.70785,21.7439735 10.0489,21.6509735 C10.1936,21.6199735 11.1548,20.9894735 12.1884,20.2556735 L14.0592,18.9120735 L17.4803,21.2375735 C20.3846,23.2013735 20.953,23.5527735 21.2734,23.5527735 C21.6662,23.5527735 22.0486,23.3563735 22.2037,23.0566735 C22.3794,22.7258735 26.4723,1.00035349 26.3999,0.741963495 C26.3689,0.597263495 26.2242,0.369878495 26.0899,0.235515495 C25.6248,-0.229589505 25.325,-0.146904505 20.5086,1.79620349 Z M19.9401,4.78320349 C19.5164,5.20696349 17.0462,7.58416349 14.4622,10.0647735 C11.8783,12.5452735 9.70785,14.6950735 9.64583,14.8397735 L9.53214,15.1085735 L9.41845,14.7570735 C9.35644,14.5607735 9.23241,14.1059735 9.13939,13.7338735 C9.04637,13.3721735 8.90167,12.9483735 8.81898,12.7933735 C8.66395,12.4935735 8.35388,12.3488735 5.58392,11.2946735 C4.51935,10.8812735 4.04391,10.6641735 4.13693,10.6021735 C4.32297,10.4884735 20.4776,4.03903349 20.612,4.02870349 C20.6636,4.01836349 20.3639,4.35944349 19.9401,4.78320349 Z M23.599,4.86589349 C23.5163,5.27931349 22.8238,8.94847349 22.059,13.0103735 C21.2838,17.0722735 20.6223,20.4830735 20.581,20.5760735 C20.5189,20.7310735 19.8368,20.3073735 16.426,17.9921735 C14.1832,16.4728735 12.3434,15.1705735 12.3434,15.1188735 C12.3434,15.0051735 23.5473,4.14239349 23.6713,4.13205349 C23.7127,4.12172349 23.6713,4.46279349 23.599,4.86589349 Z M11.1342,16.9275735 C11.651,17.2789735 12.085,17.5993735 12.085,17.6510735 C12.085,17.7544735 10.6794,18.7983735 10.545,18.7983735 C10.5037,18.7983735 10.3073,18.2091735 10.1213,17.4753735 C9.93523,16.7518735 9.75953,16.0903735 9.72852,16.0077735 C9.69751,15.9043735 9.75953,15.9250735 9.9249,16.0697735 C10.0593,16.1937735 10.607,16.5761735 11.1342,16.9275735 Z"></path>
        </g>
    </g>
</svg>