<svg width="73" height="72" viewBox="0 0 73 72" fill="none" xmlns="http://www.w3.org/2000/svg">
<path d="M36.6602 72C46.208 72 55.3647 68.2072 62.116 61.4558C68.8673 54.7045 72.6602 45.5478 72.6602 36C72.6602 26.4522 68.8673 17.2955 62.116 10.5442C55.3647 3.79285 46.208 0 36.6602 0C27.1124 0 17.9556 3.79285 11.2043 10.5442C4.453 17.2955 0.660156 26.4522 0.660156 36C0.660156 45.5478 4.453 54.7045 11.2043 61.4558C17.9556 68.2072 27.1124 72 36.6602 72Z" fill="#FF9235"/>
<path d="M50.8579 13.1132C49.6934 13.3999 49.6576 13.4267 45.0088 18.1113L40.6646 22.4914L30.1399 22.4825C21.0483 22.4825 19.5346 22.5004 19.0419 22.6168C17.5192 22.9751 16.3458 24.2381 16.0771 25.8056C16.0144 26.2086 15.9875 29.3526 16.0054 36.2765C16.0323 47.3924 15.9786 46.5504 16.722 47.6521C17.1878 48.3508 17.9581 48.933 18.7374 49.1749C19.3017 49.3451 19.5615 49.354 25.5449 49.354H31.7611L31.7164 49.8287C31.6805 50.0795 31.582 51.4052 31.4835 52.7577C31.3849 54.1103 31.2775 55.4359 31.2506 55.6957L31.2058 56.1615H29.8891C28.7336 56.1615 28.5366 56.1883 28.2768 56.3406C27.3811 56.887 27.4259 58.2306 28.3485 58.6874C28.644 58.8397 29.2173 58.8486 36.4995 58.8486C43.7817 58.8486 44.3549 58.8397 44.6505 58.6874C45.5731 58.2306 45.6179 56.887 44.7222 56.3406C44.4624 56.1883 44.2654 56.1615 43.1099 56.1615H41.7932L41.7484 55.6867C41.7126 55.4359 41.614 54.1103 41.5155 52.7577C41.417 51.4052 41.3185 50.0795 41.2826 49.8198L41.2378 49.354H47.4541C53.4375 49.354 53.6973 49.3451 54.2616 49.1749C55.0409 48.933 55.8112 48.3508 56.277 47.6521C57.0115 46.5504 56.9577 47.3924 56.9935 36.2765C57.0115 29.3437 56.9935 26.2086 56.9219 25.8056C56.5994 23.9246 54.9155 22.4825 53.0345 22.4825C52.7657 22.4825 52.8105 22.4287 53.975 21.2464C55.3365 19.8759 55.6768 19.4012 55.9545 18.5144C56.0978 18.0218 56.1337 17.7351 56.0978 17.0365C56.0709 16.2662 56.0351 16.087 55.7485 15.4958C55.5693 15.1286 55.2469 14.618 55.023 14.3762C54.0108 13.2655 52.3358 12.755 50.8579 13.1132ZM52.4881 15.8452C53.124 16.1408 53.4286 16.6155 53.4286 17.3052C53.4286 17.5023 53.3659 17.7889 53.2942 17.9501C53.2226 18.1024 50.1771 21.2195 46.5226 24.8561L39.8943 31.4844L39.6972 31.2157C39.3837 30.7768 38.3895 29.7646 38.0043 29.5049L37.655 29.2541L44.2654 22.6347C48.7708 18.1203 50.9922 15.9616 51.2341 15.8452C51.6819 15.6392 52.0313 15.6302 52.4881 15.8452ZM36.4099 26.7371L34.8424 28.3046H33.9825C32.0478 28.3046 30.0324 29.2541 28.9307 30.6962C27.6946 32.3085 26.4943 36.5363 25.9211 41.2657C25.8225 42.1166 25.8225 42.1972 25.9927 42.5197C26.3958 43.299 26.8257 43.3885 28.9307 43.084C32.6658 42.5376 35.3351 41.8389 37.2609 40.8895C38.3715 40.3431 38.9985 39.8415 39.5897 39.0085C40.4138 37.8619 40.8079 36.6706 40.8527 35.2017L40.8885 34.2612L45.4298 29.7109L49.9801 25.1607L51.7267 25.1875C53.3659 25.2144 53.4913 25.2234 53.751 25.4115C54.3064 25.8056 54.2795 25.2771 54.2795 36.0078C54.2795 45.3143 54.2706 45.8338 54.1183 46.0667C54.0287 46.21 53.8317 46.3981 53.6704 46.4877C53.3927 46.6669 53.0792 46.6669 36.4995 46.6669C19.9197 46.6669 19.6062 46.6669 19.3286 46.4877C19.1673 46.3981 18.9703 46.21 18.8807 46.0667C18.7284 45.8338 18.7195 45.2964 18.6926 36.1601C18.6747 29.2989 18.7016 26.3967 18.7732 26.137C18.8807 25.7339 19.2838 25.295 19.5973 25.2323C19.7048 25.2144 23.8878 25.1875 28.8859 25.1786L37.9774 25.1696L36.4099 26.7371ZM35.353 31.1799C37.5744 31.9233 38.7119 34.2791 37.9147 36.4467C37.5296 37.4947 36.9563 38.0859 35.8635 38.5964C34.6633 39.1607 32.1463 39.8057 29.0919 40.3431C28.7157 40.4058 28.7157 40.4327 29.074 38.6233C29.8264 34.718 30.4803 32.8817 31.4118 32.0129C31.8328 31.6188 32.7106 31.1441 33.1853 31.0545C33.8034 30.938 34.8245 31.0007 35.353 31.1799ZM38.5596 49.4167C38.5596 49.5242 38.9985 55.3822 39.0433 55.7763L39.0792 56.1615H36.4905H33.9019L33.9467 55.7763C33.9915 55.4539 34.4393 49.5959 34.4393 49.4167C34.4393 49.3809 35.3709 49.354 36.4995 49.354C37.6371 49.354 38.5596 49.3809 38.5596 49.4167Z" fill="white"/>
</svg>
