<?xml version="1.0" encoding="UTF-8"?>
<svg width="36px" height="36px" viewBox="0 0 36 36" version="1.1" xmlns="http://www.w3.org/2000/svg" xmlns:xlink="http://www.w3.org/1999/xlink">
    <title>Habr-white</title>
    <g id="Habr-white" stroke="none" stroke-width="1" fill="none" fill-rule="evenodd">
        <g transform="translate(6, 6)" fill="#FFFFFF" fill-rule="nonzero" id="Shape">
            <path d="M0,12 L0,24 L12,24 L24,24 L24,12 L24,0 L12,0 L0,0 L0,12 Z M9.76406,4.02656 C10.125,4.05 10.2844,4.08281 10.3172,4.12969 C10.3406,4.16719 10.3594,5.39531 10.3594,6.97031 C10.3594,8.49844 10.3781,9.75 10.3969,9.75 C10.4203,9.75 10.4766,9.70312 10.5281,9.64687 C10.7203,9.43125 11.3344,8.97656 11.6016,8.85937 C12.1781,8.59687 13.2,8.47031 13.8938,8.57812 C14.8266,8.71875 15.7172,9.23437 16.2281,9.92344 C16.4625,10.2469 16.7672,10.875 16.8281,11.1797 C16.8891,11.4797 16.9641,14.6484 16.9688,17.1187 L16.9688,19.0312 L15.3094,19.0312 L13.65,19.0312 L13.6313,15.9234 C13.6172,12.825 13.6172,12.8203 13.5141,12.5953 C13.3359,12.2156 13.1016,11.9344 12.8344,11.7844 C12.6,11.6578 12.5578,11.6484 12.0469,11.6484 C11.5922,11.6484 11.475,11.6625 11.2922,11.7469 C10.9172,11.9203 10.5844,12.3187 10.4438,12.7734 C10.4156,12.8531 10.3781,14.2266 10.3594,15.9094 C10.3359,17.6437 10.3031,18.9187 10.2797,18.9422 C10.2516,18.9703 9.52031,19.0031 8.63438,19.0172 L7.03125,19.0453 L7.03125,11.5172 L7.03125,3.98438 L8.14688,3.98906 C8.75625,3.98906 9.4875,4.00781 9.76406,4.02656 Z"></path>
        </g>
    </g>
</svg>